<?xml version="1.0" encoding="utf-8"?>
<!-- Generator: Adobe Illustrator 27.5.0, SVG Export Plug-In . SVG Version: 6.00 Build 0)  -->
<svg version="1.1" id="圖層_1" xmlns="http://www.w3.org/2000/svg" xmlns:xlink="http://www.w3.org/1999/xlink" x="0px" y="0px"
	 viewBox="0 0 1000 300" style="enable-background:new 0 0 1000 300;" xml:space="preserve">
<style type="text/css">
	.st0{fill:#070001;}
</style>
<g>
	<path class="st0" d="M216.56,57.63c-22.17,3.29-24.28,5.39-24.28,31.75v121.63c0,25.76,2.1,27.86,24.28,31.75v4.8h-85.38v-4.8
		c22.47-3.29,23.98-5.69,23.98-31.75v-63.82H72.48v63.82c0,26.36,2.4,28.16,24.28,31.75v4.8h-85.4v-4.8
		c21.88-2.99,23.98-5.1,23.98-31.75V89.38c0-26.36-2.7-28.16-23.98-31.75v-4.8h85.4v4.8c-21.58,3.59-24.28,5.39-24.28,31.75v48.23
		h82.68V89.38c0-26.06-2.99-28.16-23.98-31.75v-4.8h85.38V57.63z"/>
	<path class="st0" d="M338.48,48.65c53.03,0,97.38,41.65,97.38,99.78c0,62.61-44.05,103.66-98.27,103.66
		c-58.13,0-99.46-44.94-99.46-100.37C238.11,100.49,275.26,48.65,338.48,48.65z M332.5,56.15c-29.35,0-51.52,29.35-51.52,88.69
		c0,56.03,22.77,99.78,61.72,99.78c29.97,0,50.33-30.26,50.33-88.39C393,93.59,369.34,56.15,332.5,56.15z"/>
	<path class="st0" d="M636.86,57.33c-21.28,2.99-23.98,8.09-36.85,38.36c-11.68,27.57-39.84,97.67-62.02,156.4h-7.2
		c-18.58-50.63-48.23-128.53-59.62-158.8c-11.09-28.46-13.49-32.66-33.56-35.96v-4.5h85.99v4.5c-22.77,3.89-21.58,9.28-16.78,22.77
		c5.39,16.18,26.36,71.91,43.45,117.45c10.19-25.17,30.26-79.39,41.35-109.36c8.69-23.66,6.88-26.97-21.88-30.86v-4.5h67.11v4.5
		H636.86z"/>
	<path class="st0" d="M787.25,200.54c-1.51,10.49-6.88,39.84-8.69,47.04h-146.2v-4.8c25.76-3.59,27.86-5.1,27.86-31.75V89.4
		c0-26.97-1.51-29.35-22.77-31.75v-4.8h90.77c29.35,0,41.05-0.3,43.45-0.59c0.3,11.38,1.51,30.56,2.99,43.45l-4.8,0.89
		c-2.4-7.5-6.29-18.58-12.89-26.36c-5.39-6.58-11.98-8.39-29.67-8.39h-22.47c-6.29,0-7.5,1.19-7.5,7.18v71.62h29.05
		c23.66,0,24.57-6.58,28.76-25.17h4.8v59.32h-4.8c-4.18-17.67-5.1-25.17-28.76-25.17h-29.03v63.82c0,20.98,4.5,24.87,23.06,25.17
		h17.67c17.67,0,21.88-2.4,29.35-10.49c5.39-5.99,10.19-16.18,15.27-28.46L787.25,200.54z"/>
	<path class="st0" d="M987.67,249.69c-1.51,0-9.88,0-13.49,0c-35.96-1.51-45.53-8.39-55.73-24.28
		c-10.49-16.18-19.77-32.96-29.35-51.54c-6.58-12.59-11.09-16.18-21.28-16.18h-4.5v52.73c0,25.17,1.81,27.57,23.98,32.35v4.8h-84.49
		v-4.8c22.17-4.8,23.98-6.58,23.98-32.35V89.7c0-25.17-1.81-28.46-23.98-32.07v-4.8h80.6c24.57,0,39.55,2.7,51.82,11.38
		c11.38,7.79,17.97,20.07,17.97,35.34c0,30.26-23.06,43.75-38.06,50.04c4.5,8.09,20.37,35.66,28.76,49.12
		c11.38,18.29,15.27,24.28,21.88,32.07c6.88,8.09,11.09,10.79,22.77,14.68L987.67,249.69z M869.31,150.83
		c14.38,0,24.87-1.19,32.05-8.09c8.39-7.79,11.98-18.29,11.98-35.66c0-34.77-17.37-47.34-34.45-47.34c-6.29,0-10.49,0.59-12.28,2.1
		c-2.1,1.49-3.29,3.59-3.29,9.58v79.39h5.99V150.83z"/>
</g>
</svg>
